<svg height="1134" width="720" xmlns="http://www.w3.org/2000/svg">
<rect height="1134" fill="#555" width="720"></rect>
<text fill="#7f7" font-family="Courier New" font-size="12" xml:space="preserve">
<tspan x="10" y="26">10 megabytes installed</tspan>
<tspan x="10" y="42"></tspan>
<tspan x="10" y="58">node_modules</tspan>
<tspan x="10" y="74">└─┬ gulp-inline-ng2-template@4.0.0 </tspan>
<tspan x="10" y="90">  ├─┬ async@2.3.0 </tspan>
<tspan x="10" y="106">  │ └── lodash@4.17.4 </tspan>
<tspan x="10" y="122">  ├── clone@1.0.2 </tspan>
<tspan x="10" y="138">  ├─┬ es6-templates@0.2.3 </tspan>
<tspan x="10" y="154">  │ ├─┬ recast@0.11.23 </tspan>
<tspan x="10" y="170">  │ │ ├── ast-types@0.9.6 </tspan>
<tspan x="10" y="186">  │ │ ├── esprima@3.1.3 </tspan>
<tspan x="10" y="202">  │ │ ├── private@0.1.7 </tspan>
<tspan x="10" y="218">  │ │ └── source-map@0.5.6 </tspan>
<tspan x="10" y="234">  │ └── through@2.3.8 </tspan>
<tspan x="10" y="250">  ├── extend@3.0.0 </tspan>
<tspan x="10" y="266">  ├─┬ gulp-util@3.0.8 </tspan>
<tspan x="10" y="282">  │ ├── array-differ@1.0.0 </tspan>
<tspan x="10" y="298">  │ ├── array-uniq@1.0.3 </tspan>
<tspan x="10" y="314">  │ ├── beeper@1.1.1 </tspan>
<tspan x="10" y="330">  │ ├─┬ chalk@1.1.3 </tspan>
<tspan x="10" y="346">  │ │ ├── ansi-styles@2.2.1 </tspan>
<tspan x="10" y="362">  │ │ ├── escape-string-regexp@1.0.5 </tspan>
<tspan x="10" y="378">  │ │ ├─┬ has-ansi@2.0.0 </tspan>
<tspan x="10" y="394">  │ │ │ └── ansi-regex@2.1.1 </tspan>
<tspan x="10" y="410">  │ │ ├── strip-ansi@3.0.1 </tspan>
<tspan x="10" y="426">  │ │ └── supports-color@2.0.0 </tspan>
<tspan x="10" y="442">  │ ├── dateformat@2.0.0 </tspan>
<tspan x="10" y="458">  │ ├─┬ fancy-log@1.3.0 </tspan>
<tspan x="10" y="474">  │ │ └── time-stamp@1.0.1 </tspan>
<tspan x="10" y="490">  │ ├─┬ gulplog@1.0.0 </tspan>
<tspan x="10" y="506">  │ │ └── glogg@1.0.0 </tspan>
<tspan x="10" y="522">  │ ├─┬ has-gulplog@0.1.0 </tspan>
<tspan x="10" y="538">  │ │ └── sparkles@1.0.0 </tspan>
<tspan x="10" y="554">  │ ├── lodash._reescape@3.0.0 </tspan>
<tspan x="10" y="570">  │ ├── lodash._reevaluate@3.0.0 </tspan>
<tspan x="10" y="586">  │ ├── lodash._reinterpolate@3.0.0 </tspan>
<tspan x="10" y="602">  │ ├─┬ lodash.template@3.6.2 </tspan>
<tspan x="10" y="618">  │ │ ├── lodash._basecopy@3.0.1 </tspan>
<tspan x="10" y="634">  │ │ ├── lodash._basetostring@3.0.1 </tspan>
<tspan x="10" y="650">  │ │ ├── lodash._basevalues@3.0.0 </tspan>
<tspan x="10" y="666">  │ │ ├── lodash._isiterateecall@3.0.9 </tspan>
<tspan x="10" y="682">  │ │ ├─┬ lodash.escape@3.2.0 </tspan>
<tspan x="10" y="698">  │ │ │ └── lodash._root@3.0.1 </tspan>
<tspan x="10" y="714">  │ │ ├─┬ lodash.keys@3.1.2 </tspan>
<tspan x="10" y="730">  │ │ │ ├── lodash._getnative@3.9.1 </tspan>
<tspan x="10" y="746">  │ │ │ ├── lodash.isarguments@3.1.0 </tspan>
<tspan x="10" y="762">  │ │ │ └── lodash.isarray@3.0.4 </tspan>
<tspan x="10" y="778">  │ │ ├── lodash.restparam@3.6.1 </tspan>
<tspan x="10" y="794">  │ │ └── lodash.templatesettings@3.1.1 </tspan>
<tspan x="10" y="810">  │ ├── minimist@1.2.0 </tspan>
<tspan x="10" y="826">  │ ├─┬ multipipe@0.1.2 </tspan>
<tspan x="10" y="842">  │ │ └─┬ duplexer2@0.0.2 </tspan>
<tspan x="10" y="858">  │ │   └─┬ readable-stream@1.1.14 </tspan>
<tspan x="10" y="874">  │ │     └── string_decoder@0.10.31 </tspan>
<tspan x="10" y="890">  │ ├── object-assign@3.0.0 </tspan>
<tspan x="10" y="906">  │ ├── replace-ext@0.0.1 </tspan>
<tspan x="10" y="922">  │ └─┬ vinyl@0.5.3 </tspan>
<tspan x="10" y="938">  │   └── clone-stats@0.0.1 </tspan>
<tspan x="10" y="954">  ├── isarray@0.0.1 </tspan>
<tspan x="10" y="970">  └─┬ through2@2.0.3 </tspan>
<tspan x="10" y="986">    ├─┬ readable-stream@2.2.9 </tspan>
<tspan x="10" y="1002">    │ ├── buffer-shims@1.0.0 </tspan>
<tspan x="10" y="1018">    │ ├── core-util-is@1.0.2 </tspan>
<tspan x="10" y="1034">    │ ├── inherits@2.0.3 </tspan>
<tspan x="10" y="1050">    │ ├── isarray@1.0.0 </tspan>
<tspan x="10" y="1066">    │ ├── process-nextick-args@1.0.7 </tspan>
<tspan x="10" y="1082">    │ ├── string_decoder@1.0.0 </tspan>
<tspan x="10" y="1098">    │ └── util-deprecate@1.0.2 </tspan>
<tspan x="10" y="1114">    └── xtend@4.0.1</tspan>
</text>
</svg>
